control3min_grf.mot
version=1
nRows=15
nColumns 19
inDegrees=yes
endheader
time	1_ground_force_vx	1_ground_force_vy	1_ground_force_vz	1_ground_force_px	1_ground_force_py	1_ground_force_pz	1_ground_torque_x	1_ground_torque_y	1_ground_torque_z	2_ground_force_vx	2_ground_force_vy	2_ground_force_vz	2_ground_force_px	2_ground_force_py	2_ground_force_pz	2_ground_torque_x	2_ground_torque_y	2_ground_torque_z
            0.005000	          -18.094370	          591.172715	          -59.281600	           -0.222150	            0.006132	           -0.383520	           -0.088068	            2.877321	           -0.288532	          -13.682557	          645.142748	           74.107832	           -0.212719	            0.005688	           -0.689898	            0.023948	           -1.129152	           -0.129706
            0.005500	          -18.689857	          591.712383	          -59.048518	           -0.222102	            0.006133	           -0.383965	           -0.092572	            2.930785	           -0.292471	          -14.300245	          647.534439	           74.116632	           -0.212810	            0.005687	           -0.689787	            0.026456	           -1.197949	           -0.137117
            0.006000	          -19.515560	          595.857911	          -58.936981	           -0.222205	            0.006133	           -0.383816	           -0.091326	            2.788410	           -0.275805	          -15.197704	          649.556834	           74.124239	           -0.212622	            0.005688	           -0.689976	            0.026322	           -1.125034	           -0.128383
            0.006500	          -20.157364	          597.119223	          -58.838265	           -0.222082	            0.006134	           -0.384037	           -0.089096	            2.639293	           -0.260068	          -16.094560	          651.395651	           73.990411	           -0.212636	            0.005687	           -0.689662	            0.025558	           -1.034400	           -0.117495
            0.007000	          -21.073887	          599.641450	          -58.504180	           -0.222167	            0.006134	           -0.384009	           -0.092829	            2.641369	           -0.257706	          -16.763730	          655.076051	           74.050752	           -0.212753	            0.005688	           -0.690006	            0.029934	           -1.169749	           -0.132230
            0.007500	          -21.578087	          602.344324	          -58.262051	           -0.222239	            0.006133	           -0.383891	           -0.098265	            2.743043	           -0.265322	          -17.661189	          657.098446	           74.058358	           -0.212520	            0.005688	           -0.689817	            0.032556	           -1.211282	           -0.136518
            0.008000	          -22.036438	          603.785771	          -58.117166	           -0.222096	            0.006134	           -0.384123	           -0.111008	            3.041551	           -0.292763	          -18.510532	          658.753230	           73.923853	           -0.212349	            0.005688	           -0.689573	            0.037686	           -1.341166	           -0.150503
            0.008500	          -22.724736	          606.129516	          -58.197122	           -0.222000	            0.006134	           -0.384051	           -0.121603	            3.243476	           -0.311420	          -19.265427	          660.223604	           73.976349	           -0.212329	            0.005687	           -0.689378	            0.040507	           -1.388156	           -0.155539
            0.009000	          -23.229259	          608.112113	          -58.141509	           -0.222019	            0.006135	           -0.384277	           -0.122688	            3.211807	           -0.307080	          -20.536395	          661.876699	           73.888945	           -0.212237	            0.005687	           -0.689310	            0.043089	           -1.388745	           -0.155033
            0.009500	          -23.780046	          609.915315	          -58.269985	           -0.221867	            0.006135	           -0.384301	           -0.119847	            3.073862	           -0.293670	          -21.344767	          665.188143	           73.994967	           -0.212223	            0.005688	           -0.689490	            0.044833	           -1.397169	           -0.155420
            0.010000	          -24.467873	          612.798843	          -58.118339	           -0.222057	            0.006134	           -0.384107	           -0.116943	            2.928831	           -0.277773	          -22.238319	          666.106363	           73.810918	           -0.212070	            0.005688	           -0.689212	            0.043201	           -1.294000	           -0.143387
            0.010500	          -24.833874	          614.959994	          -57.649594	           -0.221994	            0.006134	           -0.384178	           -0.121202	            3.001312	           -0.281359	          -23.228068	          667.759468	           74.004963	           -0.212114	            0.005686	           -0.688891	            0.046387	           -1.333546	           -0.147791
            0.011000	          -25.566810	          615.679735	          -57.369547	           -0.222016	            0.006136	           -0.384538	           -0.128567	            3.096060	           -0.288493	          -24.125525	          669.781863	           74.012569	           -0.211992	            0.005687	           -0.688846	            0.051213	           -1.421800	           -0.157112
            0.011500	          -26.255325	          618.564443	          -57.493044	           -0.222051	            0.006136	           -0.384449	           -0.141100	            3.324264	           -0.308977	          -24.838162	          672.540828	           74.210436	           -0.212025	            0.005687	           -0.689040	            0.057931	           -1.568587	           -0.173083
            0.012000	          -26.850844	          619.284408	          -57.259190	           -0.221987	            0.006136	           -0.384665	           -0.152512	            3.517528	           -0.325232	          -25.453313	          674.196960	           73.935040	           -0.211976	            0.005687	           -0.688915	            0.063005	           -1.668855	           -0.183013
